<svg width="259" height="266" viewBox="0 0 259 266" fill="none" xmlns="http://www.w3.org/2000/svg">
<path d="M241.24 14.6499H20.29V183.14H241.24V14.6499Z" fill="#A0BF3E"/>
<path fill-rule="evenodd" clip-rule="evenodd" d="M49.51 2C49.51 2 74.67 19.51 84.57 23.71C90.94 26.41 111.79 32 111.79 32C111.79 32 119.99 25.69 123.23 24.65C129.23 22.75 144.47 27.31 144.47 27.31C144.47 27.31 156.99 28.23 161.67 28.69C167.77 29.29 173.82 36.13 179.23 39.02C191.33 45.48 193.86 51.41 205.29 54.24C211.69 55.83 237.23 53.7 237.23 53.7L258.05 129.63L224.05 134.33L204.73 157.1C204.73 157.1 206.73 164.56 199.11 170.2C197.298 171.49 195.246 172.403 193.075 172.886C190.904 173.368 188.658 173.411 186.47 173.01C185.787 175.232 184.641 177.283 183.106 179.029C181.572 180.776 179.685 182.177 177.57 183.14C170.78 186.14 162.36 181.69 162.36 181.69C162.36 181.69 159.22 187.53 153.07 189.51C144.07 192.4 138.62 187.11 138.62 187.11C138.62 187.11 132.98 193.63 124.38 194.71C117.58 195.56 114.38 192.17 114.38 192.17C111.593 193.513 108.691 194.604 105.71 195.43C101.8 196.34 97.46 194.81 93.83 191.87C91.9562 190.379 90.4434 188.484 89.4044 186.327C88.3655 184.169 87.8273 181.805 87.83 179.41C87.83 179.41 79.04 179.97 74.1 175.07C67.97 168.99 69.52 157.47 69.52 157.47C69.52 157.47 58.87 158.19 55.52 155.4C49.93 150.81 48.06 147.35 48.95 138.77C49.71 131.36 57.52 128.54 57.52 128.54L57.13 126.48C55.2298 127.175 53.2855 127.743 51.31 128.18C46.94 128.86 37.65 127.86 33.95 120.28C29.38 110.95 33.11 102.28 36.34 97.09C37.459 95.4917 38.9041 94.1488 40.58 93.15L2 77.56L49.51 2Z" fill="white"/>
<path d="M49.51 2C49.51 2 74.67 19.51 84.57 23.71C90.94 26.41 111.79 32 111.79 32C111.79 32 119.99 25.69 123.23 24.65C129.23 22.75 144.47 27.31 144.47 27.31C144.47 27.31 156.99 28.23 161.67 28.69C167.77 29.29 173.82 36.13 179.23 39.02C191.33 45.48 193.86 51.41 205.29 54.24C211.69 55.83 237.23 53.7 237.23 53.7L258.05 129.63L224.05 134.33L204.73 157.1C204.73 157.1 206.73 164.56 199.11 170.2C197.298 171.49 195.246 172.403 193.075 172.886C190.904 173.368 188.658 173.411 186.47 173.01C185.787 175.232 184.641 177.283 183.106 179.029C181.572 180.776 179.685 182.177 177.57 183.14C170.78 186.14 162.36 181.69 162.36 181.69C162.36 181.69 159.22 187.53 153.07 189.51C144.07 192.4 138.62 187.11 138.62 187.11C138.62 187.11 132.98 193.63 124.38 194.71C117.58 195.56 114.38 192.17 114.38 192.17C111.593 193.513 108.691 194.604 105.71 195.43C101.8 196.34 97.46 194.81 93.83 191.87C91.9562 190.379 90.4434 188.484 89.4044 186.327C88.3655 184.169 87.8273 181.805 87.83 179.41C87.83 179.41 79.04 179.97 74.1 175.07C67.97 168.99 69.52 157.47 69.52 157.47C69.52 157.47 58.87 158.19 55.52 155.4C49.93 150.81 48.06 147.35 48.95 138.77C49.71 131.36 57.52 128.54 57.52 128.54L57.13 126.48C55.2298 127.175 53.2855 127.743 51.31 128.18C46.94 128.86 37.65 127.86 33.95 120.28C29.38 110.95 33.11 102.28 36.34 97.09C37.459 95.4917 38.9041 94.1489 40.58 93.15L2 77.56L49.51 2Z" stroke="#89B252" stroke-width="1.42" stroke-miterlimit="22.93"/>
<path d="M40.61 93.1499C54.17 99.3299 57.55 128.54 57.55 128.54C61.8087 126.693 66.5069 126.103 71.09 126.84C73.3131 127.274 75.409 128.205 77.2206 129.565C79.0322 130.924 80.5123 132.677 81.55 134.69C83.42 138.57 82.02 144.09 82.02 144.09C82.02 144.09 87.74 140.85 93.34 141.92C99.9 143.17 104.81 149.56 105.75 153.85C106.59 157.64 103.47 163.67 103.47 163.67C103.47 163.67 108.22 159.81 115.79 162.67C119.97 164.22 123.46 169.6 123.74 174.04C124.41 184.5 114.42 192.21 114.42 192.21" stroke="#89B252" stroke-width="1.42" stroke-miterlimit="22.93"/>
<path d="M119.78 146.16L138.62 187.11" stroke="#89B252" stroke-width="1.42" stroke-miterlimit="22.93"/>
<path d="M111.82 32C110.18 33.87 109.05 37.09 107.98 38.51C105.79 41.42 103.46 43.92 101.57 47.03C99.57 50.35 95.57 57.91 96.29 61.65C98.15 71.45 109.46 70.37 114.62 69.25C119.16 68.25 129.92 60.92 132.27 56.91L140.11 43.58L132.27 56.91C134.321 57.349 136.328 57.968 138.27 58.76C146.62 63.42 152.73 77.41 159.27 84.37C163.27 88.67 168.45 93.52 175.87 94.45C182.08 95.23 187.62 95.8 192.11 95.36C195.26 95.04 205.82 93.1 205.82 93.1C205.82 93.1 196.93 94.91 193.82 95.23C189.34 95.67 175.92 94.44 175.92 94.44L204.73 157.1" stroke="#89B252" stroke-width="1.42" stroke-miterlimit="22.93"/>
<path d="M139.52 132.96L162.36 181.69" stroke="#89B252" stroke-width="1.42" stroke-miterlimit="22.93"/>
<path d="M160.14 120.12L186.46 173.01" stroke="#89B252" stroke-width="1.42" stroke-miterlimit="22.93"/>
<path d="M60.82 135.1C60.09 136.19 57.82 142.52 60.07 145.3C63.96 150.2 70.55 146.99 75.07 144.71" stroke="#89B252" stroke-width="1.42" stroke-miterlimit="22.93"/>
<path d="M111.19 41.77C111.19 41.77 113.12 46.35 111.74 48.58C110.52 50.58 103.02 58.58 103.02 58.58" stroke="#89B252" stroke-width="1.42" stroke-miterlimit="22.93"/>
<path d="M84.45 152.71C81.87 154.95 77.4501 162.55 81.9601 166.71C84.8901 169.42 89.6001 170.48 95.7801 162.14" stroke="#89B252" stroke-width="1.42" stroke-miterlimit="22.93"/>
<path d="M106.68 171.32C104.5 172.72 100.42 177.93 103.31 181.5C105.21 183.84 108.62 185.14 114.13 179.56" stroke="#89B252" stroke-width="1.42" stroke-miterlimit="22.93"/>
<path d="M161.02 222.49C160.65 221.816 160.214 221.179 159.72 220.59C159.29 220.002 158.793 219.465 158.24 218.99C157.496 218.497 156.684 218.117 155.83 217.86C156.969 217.631 158.065 217.226 159.08 216.66C160.292 215.924 161.297 214.892 162 213.66C162.754 212.209 163.121 210.588 163.065 208.953C163.009 207.319 162.532 205.726 161.68 204.33C160.808 203.018 159.518 202.038 158.02 201.55C155.883 200.971 153.672 200.719 151.46 200.8H136.04V224.41H112.65V218.41H127.05V212.19H112.65V207.34H128.18V200.82H62.6799V217.7L50.8199 200.81H41.6899V224.42H19.6899V218.42H34.1V212.2H19.6899V207.35H35.22V200.83H10.4199V231.35H50.8199V214.58L62.6699 231.33H71.8799V208.33H82.8199V231.33H92.08V208.33H103.82V231.33H145.32V218.95H146.13C146.942 218.938 147.736 219.183 148.4 219.65C149.112 220.316 149.684 221.119 150.08 222.01L155.02 231.33H165.48L161.02 222.49ZM153.19 211.81C152.837 212.323 152.3 212.681 151.69 212.81C150.888 213.025 150.068 213.165 149.24 213.23H145.34V207.03H149.4C150.606 206.902 151.82 207.18 152.85 207.82C153.166 208.104 153.413 208.455 153.572 208.849C153.732 209.242 153.799 209.667 153.77 210.09C153.768 210.711 153.564 211.315 153.19 211.81Z" fill="#12391B"/>
<path d="M165.62 222.04L174.72 221.46C174.639 222.654 174.888 223.848 175.44 224.91C175.863 225.553 176.45 226.071 177.142 226.409C177.833 226.746 178.603 226.892 179.37 226.83C180.539 226.88 181.69 226.527 182.63 225.83C183.382 225.286 183.889 224.466 184.04 223.55C184.096 223.152 184.057 222.746 183.927 222.365C183.796 221.985 183.578 221.641 183.29 221.36C182.683 220.693 181.15 220.083 178.69 219.53C174.69 218.53 171.87 217.29 170.32 215.69C169.543 214.899 168.969 213.933 168.647 212.872C168.325 211.812 168.264 210.689 168.47 209.6C168.715 207.916 169.406 206.328 170.47 205C171.675 203.481 173.258 202.306 175.06 201.59C177.523 200.673 180.143 200.251 182.77 200.35C186.69 200.35 189.57 201.1 191.43 202.6C193.29 204.1 194.18 206.49 194.12 209.77L185.12 210.31C185.184 209.173 184.8 208.057 184.05 207.2C183.217 206.491 182.142 206.133 181.05 206.2C180.132 206.144 179.223 206.402 178.47 206.93C178.18 207.132 177.934 207.392 177.748 207.693C177.562 207.994 177.44 208.33 177.39 208.68C177.357 208.931 177.386 209.187 177.475 209.424C177.564 209.661 177.71 209.873 177.9 210.04C178.79 210.666 179.82 211.064 180.9 211.2C183.849 211.758 186.712 212.696 189.42 213.99C190.912 214.754 192.116 215.983 192.85 217.49C193.492 218.961 193.697 220.586 193.44 222.17C193.154 224.217 192.325 226.151 191.04 227.77C189.708 229.485 187.954 230.825 185.95 231.66C183.54 232.601 180.966 233.05 178.38 232.98C173.17 232.98 169.69 231.98 167.97 229.88C166.192 227.655 165.352 224.824 165.63 221.99" fill="white"/>
<path d="M201.08 200.91H226.49L225.57 207.4H209.66L208.98 212.24H223.73L222.85 218.45H208.1L207.25 224.44H223.61L222.64 231.33H196.77L201.08 200.91Z" fill="white"/>
<path d="M229.9 200.91H258.71L257.65 208.42H247.98L244.73 231.33H235.25L238.5 208.42H228.83L229.9 200.91Z" fill="white"/>
<path fill-rule="evenodd" clip-rule="evenodd" d="M35.27 264.95H32.82L22.34 250.27V251.38C22.34 251.8 22.34 252.15 22.34 252.44V264.95H20.27V248.1H23.47L33.28 261.84V260.67C33.28 260.21 33.28 259.8 33.28 259.45V248.1H35.28L35.27 264.95ZM55.04 265.3C53.8955 265.364 52.7514 265.169 51.6921 264.732C50.6328 264.294 49.6854 263.623 48.92 262.77C47.4463 261.043 46.666 258.83 46.73 256.56C46.6459 254.228 47.4706 251.955 49.03 250.22C50.6455 248.626 52.8207 247.729 55.0898 247.72C57.3589 247.71 59.5415 248.59 61.17 250.17C62.7072 251.862 63.525 254.085 63.45 256.37C63.4891 258.656 62.7007 260.879 61.23 262.63C60.4736 263.522 59.5214 264.227 58.4477 264.69C57.374 265.153 56.2077 265.362 55.04 265.3ZM55.1 263.58C55.9076 263.616 56.7116 263.453 57.4408 263.104C58.17 262.755 58.8018 262.232 59.28 261.58C60.3423 260.056 60.8729 258.225 60.79 256.37C60.9025 254.54 60.3483 252.732 59.23 251.28C58.7234 250.682 58.0873 250.208 57.37 249.892C56.6527 249.577 55.873 249.429 55.09 249.46C54.2869 249.435 53.4895 249.603 52.7654 249.951C52.0412 250.299 51.4117 250.817 50.93 251.46C49.8497 252.953 49.307 254.769 49.39 256.61C49.3076 258.43 49.859 260.221 50.95 261.68C51.4413 262.303 52.0739 262.801 52.7955 263.131C53.5172 263.462 54.3072 263.615 55.1 263.58ZM89.57 264.95H86.9L83.16 257.63H77.32V264.95H74.93V248.1H82.93C84.6703 247.955 86.3998 248.485 87.76 249.58C88.2369 249.976 88.6244 250.469 88.8967 251.025C89.1691 251.582 89.3202 252.19 89.34 252.81C89.3245 253.741 89.0166 254.644 88.46 255.39C87.7317 256.308 86.6998 256.935 85.55 257.16L89.57 264.95ZM77.32 255.95H82.63C83.7512 256.041 84.8663 255.713 85.76 255.03C86.0805 254.75 86.3361 254.404 86.5088 254.016C86.6815 253.627 86.7672 253.205 86.76 252.78C86.7747 252.368 86.6819 251.96 86.4907 251.595C86.2996 251.231 86.0167 250.922 85.67 250.7C84.8452 250.182 83.8835 249.924 82.91 249.96H77.32V255.95ZM107.44 264.95H104.88V249.95H99.04V248.1H113.28V249.95H107.44V264.95ZM136.94 263.1V264.95H123.82V248.1H136.72V249.95H126.34V255.31H134.53V257.03H126.34V263.1H136.94Z" fill="#12391B"/>
<path d="M171.68 253.1C171.694 252.655 171.601 252.212 171.41 251.81C171.229 251.456 170.977 251.143 170.67 250.89C170.334 250.641 169.954 250.458 169.55 250.35C169.094 250.223 168.623 250.162 168.15 250.17C167.726 250.172 167.304 250.219 166.89 250.31C166.486 250.401 166.093 250.539 165.72 250.72C165.322 250.882 164.945 251.094 164.6 251.35C164.239 251.573 163.904 251.834 163.6 252.13V250.13C164.218 249.632 164.914 249.24 165.66 248.97C166.564 248.694 167.505 248.563 168.45 248.58C169.18 248.571 169.907 248.665 170.61 248.86C171.239 249.039 171.831 249.327 172.36 249.71C172.844 250.068 173.238 250.533 173.51 251.07C173.801 251.643 173.951 252.277 173.95 252.92C173.949 253.514 173.854 254.105 173.67 254.67C173.468 255.191 173.181 255.674 172.82 256.1C172.438 256.588 171.998 257.027 171.51 257.41C170.906 257.877 170.275 258.308 169.62 258.7C168.71 259.23 167.98 259.7 167.4 260.09C166.895 260.393 166.428 260.755 166.01 261.17C165.691 261.443 165.438 261.785 165.27 262.17C165.131 262.54 165.066 262.935 165.08 263.33H174.6V264.99H162.82V264.18C162.819 263.563 162.91 262.95 163.09 262.36C163.288 261.81 163.586 261.301 163.97 260.86C164.45 260.329 164.991 259.856 165.58 259.45C166.24 258.97 167.06 258.45 168.02 257.84C168.634 257.487 169.219 257.085 169.77 256.64C170.189 256.3 170.565 255.91 170.89 255.48C171.167 255.142 171.371 254.75 171.49 254.33C171.622 253.934 171.686 253.518 171.68 253.1ZM197.23 256.88C197.249 258.094 197.101 259.306 196.79 260.48C196.553 261.433 196.124 262.328 195.53 263.11C195.011 263.815 194.323 264.379 193.53 264.75C192.667 265.127 191.732 265.315 190.79 265.3C189.904 265.323 189.025 265.142 188.22 264.77C187.476 264.406 186.828 263.872 186.33 263.21C185.768 262.46 185.367 261.602 185.15 260.69C184.863 259.576 184.725 258.43 184.74 257.28C184.724 256.021 184.862 254.765 185.15 253.54C185.403 252.565 185.83 251.643 186.41 250.82C186.915 250.094 187.605 249.517 188.41 249.15C189.28 248.771 190.221 248.584 191.17 248.6C195.23 248.59 197.23 251.36 197.23 256.87V256.88ZM194.99 257.07C194.99 252.45 193.7 250.17 191.1 250.17C188.5 250.17 187 252.5 187 257.17C187 261.53 188.34 263.73 191 263.73C193.66 263.73 194.99 261.49 194.99 257.1V257.07ZM216.16 253.07C216.17 252.624 216.074 252.182 215.88 251.78C215.699 251.426 215.447 251.113 215.14 250.86C214.805 250.609 214.425 250.426 214.02 250.32C213.568 250.193 213.1 250.133 212.63 250.14C212.206 250.142 211.784 250.189 211.37 250.28C210.962 250.371 210.566 250.509 210.19 250.69C209.793 250.854 209.417 251.066 209.07 251.32C208.711 251.545 208.376 251.806 208.07 252.1V250.1C208.668 249.605 209.344 249.213 210.07 248.94C210.974 248.665 211.915 248.534 212.86 248.55C213.59 248.541 214.317 248.635 215.02 248.83C215.649 249.007 216.242 249.295 216.77 249.68C217.259 250.032 217.654 250.499 217.92 251.04C218.213 251.612 218.364 252.247 218.36 252.89C218.357 253.483 218.266 254.073 218.09 254.64C217.907 255.168 217.636 255.661 217.29 256.1C216.91 256.59 216.47 257.03 215.98 257.41C215.376 257.877 214.745 258.308 214.09 258.7C213.19 259.23 212.45 259.7 211.88 260.09C211.372 260.393 210.902 260.755 210.48 261.17C210.164 261.446 209.911 261.787 209.74 262.17C209.601 262.54 209.536 262.935 209.55 263.33H219.07V264.99H207.29V264.18C207.287 263.562 207.382 262.948 207.57 262.36C207.764 261.81 208.059 261.302 208.44 260.86C208.923 260.332 209.463 259.859 210.05 259.45C210.71 258.97 211.53 258.45 212.49 257.84C213.106 257.489 213.691 257.088 214.24 256.64C214.661 256.303 215.038 255.913 215.36 255.48C215.641 255.145 215.846 254.752 215.96 254.33C216.095 253.934 216.163 253.518 216.16 253.1V253.07ZM237.76 265H235.57V251.1C235.328 251.277 235.074 251.438 234.81 251.58C234.455 251.789 234.088 251.976 233.71 252.14C233.33 252.32 232.89 252.48 232.46 252.65C232.021 252.798 231.574 252.918 231.12 253.01V251.1C231.638 250.971 232.149 250.814 232.65 250.63C233.19 250.45 233.717 250.237 234.23 249.99C234.75 249.76 235.23 249.5 235.71 249.25C236.133 249.029 236.537 248.775 236.92 248.49H237.76V265Z" fill="#12391B"/>
</svg>
