<svg width="246" height="34" viewBox="0 0 246 34" fill="none" xmlns="http://www.w3.org/2000/svg">
<path d="M0.04 1.32V33H19.408V25.872H8.224V1.32H0.04ZM40.114 1.32V20.28C40.114 24.24 38.386 26.16 35.338 26.16C32.242 26.16 30.514 24.24 30.514 20.28V1.32H22.33V20.712C22.33 28.536 27.058 33.576 35.338 33.576C43.594 33.576 48.298 28.536 48.298 20.712V1.32H40.114ZM69.6149 25.464C63.3029 25.464 60.7109 21.264 60.7109 17.136C60.7109 13.056 63.3029 8.856 69.6149 8.856C72.2069 8.856 74.6789 9.84 75.8309 10.608L79.3349 3.672C77.8229 2.4 73.9589 0.743998 68.9669 0.743998C59.6069 0.743998 51.8309 7.776 51.8309 17.208C51.8309 26.616 59.6309 33.576 68.9669 33.576C73.9589 33.576 77.8229 31.92 79.3349 30.648L75.8309 23.712C74.6789 24.48 72.2069 25.464 69.6149 25.464ZM93.2999 1.32L80.5079 33H89.2679L91.4519 27.048H103.212L105.396 33H114.108L101.34 1.32H93.2999ZM94.1879 19.92L97.3079 11.16H97.3799L100.5 19.92H94.1879ZM127.726 0.743998C121.99 0.743998 116.686 4.176 116.686 9.744C116.686 15.288 120.55 17.856 124.63 19.416C128.83 20.976 130.414 22.008 130.414 23.664C130.414 25.152 129.214 26.064 126.694 26.064C123.43 26.064 119.086 23.712 118.39 23.112L114.358 29.976C115.054 30.648 119.878 33.576 126.694 33.576C132.838 33.576 138.958 30.768 138.958 24.048C138.958 18.696 135.19 15.696 130.414 14.016C126.55 12.648 125.062 11.736 125.062 10.248C125.062 8.784 126.526 8.136 128.638 8.136C131.062 8.136 133.798 9.744 134.542 10.344L138.454 3.768C137.806 3.264 133.726 0.743998 127.726 0.743998Z" fill="#FF804A"/>
<path d="M160.093 1.32V20.28C160.093 24.24 158.365 26.16 155.317 26.16C152.221 26.16 150.493 24.24 150.493 20.28V1.32H142.309V20.712C142.309 28.536 147.037 33.576 155.317 33.576C163.573 33.576 168.277 28.536 168.277 20.712V1.32H160.093ZM192.522 15.96L202.53 1.32H192.57L187.434 9.648L182.226 1.32H171.81L182.01 15.96L170.778 33H180.642L187.098 22.8L193.818 33H204.522L192.522 15.96ZM224.7 1.32V20.28C224.7 24.24 222.972 26.16 219.924 26.16C216.828 26.16 215.1 24.24 215.1 20.28V1.32H206.916V20.712C206.916 28.536 211.644 33.576 219.924 33.576C228.18 33.576 232.884 28.536 232.884 20.712V1.32H224.7ZM237.185 1.32V33H245.369V1.32H237.185Z" fill="#272727"/>
</svg>
