<svg width="56" height="56" viewBox="0 0 56 56" fill="none" xmlns="http://www.w3.org/2000/svg">
<rect width="56" height="56" fill="#FC66CC"/>
<path opacity="0.4" d="M30.0215 37.5445C30.0215 38.4262 30.7459 39.14 31.6407 39.14L39.4627 39.5798C40.603 39.5798 41.5262 38.6681 41.5262 37.5445C41.5262 36.4209 40.603 35.5112 39.4627 35.5112L31.6407 35.9491C30.7459 35.9491 30.0215 36.6628 30.0215 37.5445" fill="white"/>
<path d="M14.2755 35.3668C14.2755 35.3668 13.8047 35.8246 13.5998 36.1085C13.2833 36.5204 13.125 37.0282 13.125 37.534C13.125 38.1018 13.3036 38.6297 13.6404 39.0595C13.7195 39.1375 14.0178 39.4694 14.2958 39.7433C15.921 41.4627 20.1638 44.2757 22.3856 45.1354C22.7224 45.2714 23.5746 45.5653 24.0312 45.5833C24.4654 45.5833 24.8834 45.4873 25.279 45.2914C25.7741 45.0174 26.1718 44.5876 26.3889 44.0798C26.5289 43.7279 26.746 42.6743 26.746 42.6543C26.9652 41.5007 27.0828 39.6253 27.0828 37.554C27.0828 35.5807 26.9652 33.7833 26.7866 32.6117C26.7663 32.5918 26.5492 31.2842 26.3098 30.8344C25.8735 30.0146 25.0213 29.5048 24.1103 29.5048H24.0312C23.4366 29.5248 22.1867 30.0346 22.1867 30.0526C20.0846 30.9123 15.9413 33.5894 14.2755 35.3668" fill="white"/>
<path opacity="0.4" d="M26.9791 19.4547C26.9791 18.573 26.2547 17.8592 25.3599 17.8592L17.5377 17.4214C16.3974 17.4214 15.4741 18.3311 15.4741 19.4547C15.4741 20.5783 16.3974 21.49 17.5377 21.49L25.3599 21.0501C26.2547 21.0501 26.9791 20.3364 26.9791 19.4547" fill="white"/>
<path d="M31.7204 11.7086C31.2253 11.9825 30.8296 12.4123 30.6105 12.9202C30.4704 13.272 30.2533 14.3277 30.2533 14.3457C30.0342 15.4993 29.9165 17.3746 29.9165 19.4459C29.9165 21.4192 30.0342 23.2166 30.2128 24.3882C30.233 24.4082 30.4522 25.7157 30.6896 26.1656C31.1258 26.9873 31.9781 27.4951 32.8912 27.4951H32.9703C33.5648 27.4751 34.8127 26.9673 34.8127 26.9473C36.9149 26.0876 41.0603 23.4125 42.7241 21.6331C42.7241 21.6331 43.1949 21.1753 43.3978 20.8914C43.7164 20.4815 43.8746 19.9737 43.8746 19.4639C43.8746 18.8981 43.6961 18.3723 43.3593 17.9404C43.2801 17.8625 42.9818 17.5306 42.7059 17.2567C41.0786 15.5393 36.8357 12.7242 34.6159 11.8665C34.2791 11.7286 33.4248 11.4347 32.9703 11.4167C32.534 11.4167 32.116 11.5127 31.7204 11.7086" fill="white"/>
</svg>
